<mxfile host="Electron" modified="2024-02-26T18:41:08.474Z" agent="Mozilla/5.0 (Windows NT 10.0; Win64; x64) AppleWebKit/537.36 (KHTML, like Gecko) draw.io/23.1.5 Chrome/120.0.6099.109 Electron/28.1.0 Safari/537.36" etag="cTf3dwgqj1XIXi-UHAEY" version="23.1.5" type="device">
  <diagram name="Page-1" id="YjDpWbjtfcmGzU12DyLb">
    <mxGraphModel dx="794" dy="511" grid="1" gridSize="10" guides="1" tooltips="1" connect="1" arrows="1" fold="1" page="1" pageScale="1" pageWidth="827" pageHeight="1169" math="0" shadow="0">
      <root>
        <mxCell id="0" />
        <mxCell id="1" parent="0" />
        <mxCell id="j8kRclX2hZ-n2lX8BzqL-1" value="List" style="swimlane;fontStyle=0;childLayout=stackLayout;horizontal=1;startSize=30;horizontalStack=0;resizeParent=1;resizeParentMax=0;resizeLast=0;collapsible=1;marginBottom=0;whiteSpace=wrap;html=1;" vertex="1" parent="1">
          <mxGeometry x="330" y="200" width="140" height="120" as="geometry" />
        </mxCell>
        <mxCell id="j8kRclX2hZ-n2lX8BzqL-2" value="Item 1" style="text;strokeColor=none;fillColor=none;align=left;verticalAlign=middle;spacingLeft=4;spacingRight=4;overflow=hidden;points=[[0,0.5],[1,0.5]];portConstraint=eastwest;rotatable=0;whiteSpace=wrap;html=1;" vertex="1" parent="j8kRclX2hZ-n2lX8BzqL-1">
          <mxGeometry y="30" width="140" height="30" as="geometry" />
        </mxCell>
        <mxCell id="j8kRclX2hZ-n2lX8BzqL-3" value="Item 2" style="text;strokeColor=none;fillColor=none;align=left;verticalAlign=middle;spacingLeft=4;spacingRight=4;overflow=hidden;points=[[0,0.5],[1,0.5]];portConstraint=eastwest;rotatable=0;whiteSpace=wrap;html=1;" vertex="1" parent="j8kRclX2hZ-n2lX8BzqL-1">
          <mxGeometry y="60" width="140" height="30" as="geometry" />
        </mxCell>
        <mxCell id="j8kRclX2hZ-n2lX8BzqL-4" value="Item 3" style="text;strokeColor=none;fillColor=none;align=left;verticalAlign=middle;spacingLeft=4;spacingRight=4;overflow=hidden;points=[[0,0.5],[1,0.5]];portConstraint=eastwest;rotatable=0;whiteSpace=wrap;html=1;" vertex="1" parent="j8kRclX2hZ-n2lX8BzqL-1">
          <mxGeometry y="90" width="140" height="30" as="geometry" />
        </mxCell>
        <mxCell id="j8kRclX2hZ-n2lX8BzqL-5" value="Entité: Candidat&#xa;Attributs: &#xa;- IUC (Identifiant Unique du Candidat)&#xa;- nom&#xa;- prénom&#xa;- date de naissance&#xa;- pays d’origine&#xa;- numéro de téléphone&#xa;- numéro de passeport&#xa;- statut matrimonial&#xa;&#xa;Entité: Programme d’immigration&#xa;Attributs:&#xa;- nom&#xa;&#xa;Entité: Test de langues&#xa;Attributs:&#xa;- nom du test&#xa;- date du test&#xa;- performance&#xa;&#xa;Entité: Agent consultant&#xa;Attributs:&#xa;- compte&#xa;- nombre maximum de dossiers à suivre&#xa;&#xa;Entité: Commentaire&#xa;Attribut:&#xa;- pertinent&#xa;&#xa;Relations:&#xa;1. Relation (Candidat_Participe_Programme)&#xa;   - Entre Candidat et Programme d’immigration&#xa;&#xa;2. Relation (Candidat_Passe_Test)&#xa;   - Entre Candidat et Test de langues&#xa;&#xa;3. Relation (Agent_Suit_Candidat)&#xa;   - Entre Agent consultant et Candidat&#xa;&#xa;4. Relation (Agent_Ajoute_Commentaire)&#xa;   - Entre Agent consultant et Commentaire" style="text;whiteSpace=wrap;html=1;" vertex="1" parent="1">
          <mxGeometry x="160" y="190" width="270" height="630" as="geometry" />
        </mxCell>
      </root>
    </mxGraphModel>
  </diagram>
</mxfile>
